<svg width="155" height="38" viewBox="0 0 155 38" fill="none" xmlns="http://www.w3.org/2000/svg">
<path d="M129.677 9.01119C133.332 9.02253 136.2 11.2691 137.052 14.8394C137.192 15.4181 137.408 15.5958 138.003 15.5542C139.646 15.4332 139.65 15.4597 140.199 13.8939C141.427 10.4106 145.143 8.40227 148.961 9.15869C152.707 9.8962 155.203 13.1185 154.987 16.9309C154.771 20.7016 151.964 23.6252 148.218 23.9769C144.423 24.3325 141.377 22.3658 140.063 18.7766C139.946 18.4589 139.51 18.1071 139.173 18.0466C137.601 17.763 137.283 17.9747 136.673 19.4346C135.207 22.9444 131.31 24.7825 127.522 23.7538C123.806 22.744 121.541 19.2607 122.079 15.3764C122.598 11.6322 125.741 8.99606 129.677 9.0074V9.01119ZM152.559 16.5149C152.57 13.5459 150.245 11.1443 147.37 11.1518C144.552 11.1594 142.222 13.5497 142.196 16.4581C142.169 19.393 144.521 21.859 147.362 21.8741C150.226 21.8892 152.551 19.4914 152.563 16.5149H152.559ZM134.817 16.4884C134.813 13.5384 132.457 11.1367 129.586 11.1518C126.791 11.167 124.431 13.6064 124.423 16.4846C124.42 19.4119 126.806 21.8817 129.628 21.8703C132.491 21.8627 134.821 19.446 134.813 16.4846L134.817 16.4884Z" fill="white"/>
<path d="M129.519 28.9198C130.068 28.4695 130.484 28.1214 130.907 27.7846C131.076 27.6484 131.264 27.5311 131.437 27.4138C137.025 32.0112 140.143 32.0074 145.603 27.3798C146.187 27.8565 146.779 28.3371 147.481 28.9084C145.332 31.4852 142.649 32.9798 139.296 33.1993C135.327 33.4604 132.147 31.9241 129.523 28.9198H129.519Z" fill="white"/>
<path d="M14.4 31V20.728H5.696V17.912H14.4V17.016C14.4 13.048 12.64 11 9.6 11C6.56 11 4.8 13.048 4.8 17.016V31H1.824V16.952C1.824 11.48 5.024 8.248 9.6 8.248C14.176 8.248 17.376 11.48 17.376 16.952V31H14.4ZM22.6115 8.632H25.5875V23.672C25.5875 26.616 27.1875 28.248 30.0355 28.248H34.0995V31H30.5475C25.2355 31 22.6115 28.44 22.6115 23.192V8.632ZM36.3415 31L39.1895 11.064C39.4455 9.272 40.2455 8.344 41.5575 8.344C42.6775 8.344 43.5095 9.112 43.9575 10.584L48.9495 26.52L53.9095 10.584C54.3575 9.112 55.1895 8.344 56.3095 8.344C57.6215 8.344 58.4215 9.272 58.6775 11.064L61.5255 31H58.6775L56.1175 12.568L50.9975 28.984C50.5175 30.52 49.9095 31.256 48.9495 31.256C47.8935 31.256 47.3495 30.488 46.8695 28.984L41.7495 12.568L39.2215 31H36.3415ZM78.2312 31V20.728H69.5272V17.912H78.2312V17.016C78.2312 13.048 76.4712 11 73.4312 11C70.3912 11 68.6312 13.048 68.6312 17.016V31H65.6552V16.952C65.6552 11.48 68.8552 8.248 73.4312 8.248C78.0072 8.248 81.2073 11.48 81.2073 16.952V31H78.2312ZM86.4428 31V16.664C86.4428 11.288 89.3228 8.248 93.7388 8.248C97.8668 8.248 100.811 11.096 100.811 14.552C100.811 16.664 99.7868 18.36 97.8028 19.448C100.171 20.088 101.131 21.816 101.131 24.92V31H98.1868V26.04C98.1868 22.584 97.3868 21.208 93.9628 21.208H90.5708V18.488H93.1948C96.1708 18.488 97.7708 17.048 97.7708 14.744C97.7708 12.6 96.1708 11 93.7068 11C91.1468 11 89.3868 12.824 89.3868 15.992V31H86.4428ZM105.887 31V16.408C105.887 11.16 108.479 8.632 113.791 8.632H116.991V11.384H113.279C110.431 11.384 108.831 13.016 108.831 15.96V18.456H116.991V21.208H108.831V31H105.887Z" fill="white"/>
</svg>
